<svg width="24" height="24" viewBox="0 0 24 24" fill="none" xmlns="http://www.w3.org/2000/svg">
<circle cx="12" cy="12" r="12" fill="black"/>
<path d="M15.5 5.91C12.77 4.37 9.41 4.86 7.17 6.89V5.7C7.17 5.28 6.89 5 6.47 5C6.05 5 5.77 5.28 5.77 5.7V8.85C5.77 9.27 6.05 9.55 6.47 9.55H9.62C10.04 9.55 10.32 9.27 10.32 8.85C10.32 8.43 10.04 8.15 9.62 8.15H7.94C8.99 7.03 10.46 6.4 12 6.4C15.08 6.4 17.6 8.92 17.6 12C17.6 12.42 17.88 12.7 18.3 12.7C18.72 12.7 19 12.42 19 12C19 9.48 17.67 7.17 15.5 5.91ZM17.53 14.45H14.38C13.96 14.45 13.68 14.73 13.68 15.15C13.68 15.57 13.96 15.85 14.38 15.85H16.06C15.01 16.97 13.54 17.6 12 17.6C8.92 17.6 6.4 15.08 6.4 12C6.4 11.58 6.12 11.3 5.7 11.3C5.28 11.3 5 11.58 5 12C5 15.85 8.15 19 12 19C13.82 19 15.5 18.3 16.83 17.04V18.3C16.83 18.72 17.11 19 17.53 19C17.95 19 18.23 18.72 18.23 18.3V15.15C18.23 14.73 17.88 14.45 17.53 14.45Z" fill="white"/>
</svg>
